# xmcd CD database file
#
# Track frame offsets:
#	150
#	19373
#	28543
#	45080
#	61305
#	75020
#	86838
#	111535
#	124678
#	137895
#	148185
#	162120
#
# Disc length: 2315 seconds
#
# Revision: 0
# Processed by: cddbd v1.5.2PL0 Copyright (c) Steve Scherf et al.
# Submitted via: CDex 1.51
#
DISCID=9909090c
DTITLE=RAY CHARLES - BEAUTIFUL POPS EXPLOSION
DYEAR=1900
DGENRE=Country
TTITLE0=I Can't Stop Loving You
TTITLE1=Hit The Road Jack
TTITLE2=Georgia On My Mind
TTITLE3=Your Ceating Heart
TTITLE4=You Are My Sunshine
TTITLE5=Hallelujah I Love Her So
TTITLE6=What'd I Say
TTITLE7=Unchain My Heart
TTITLE8=I Got A Woman
TTITLE9=Yes Indeed
TTITLE10=A Fool For You
TTITLE11=Lonely Avenue
EXTD=
EXTT0=
EXTT1=
EXTT2=
EXTT3=
EXTT4=
EXTT5=
EXTT6=
EXTT7=
EXTT8=
EXTT9=
EXTT10=
EXTT11=
PLAYORDER=
